<svg width="24" height="19" viewBox="0 0 24 19" fill="none" xmlns="http://www.w3.org/2000/svg">
<path d="M14 4.5L13.5 4.5L13.5 5.5L14 5.5L14 4.5ZM23 5.5C23.2761 5.5 23.5 5.27614 23.5 5C23.5 4.72386 23.2761 4.5 23 4.5L23 5.5ZM14 5.5L23 5.5L23 4.5L14 4.5L14 5.5Z" fill="#8E8E8E"/>
<path d="M1 4.5C0.723858 4.5 0.5 4.72386 0.5 5C0.5 5.27614 0.723858 5.5 1 5.5L1 4.5ZM2 5.5L2.5 5.5L2.5 4.5L2 4.5L2 5.5ZM1 5.5L2 5.5L2 4.5L1 4.5L1 5.5Z" fill="#8E8E8E"/>
<path d="M10 14.5H10.5V13.5H10V14.5ZM1 13.5C0.723859 13.5 0.500001 13.7239 0.500001 14C0.500001 14.2761 0.723859 14.5 1 14.5V13.5ZM10 13.5H1V14.5H10V13.5Z" fill="#8E8E8E"/>
<path d="M23 14.5C23.2761 14.5 23.5 14.2761 23.5 14C23.5 13.7239 23.2761 13.5 23 13.5V14.5ZM22 13.5H21.5V14.5H22V13.5ZM23 13.5H22V14.5H23V13.5Z" fill="#8E8E8E"/>
<circle cx="8.01413" cy="5.01414" r="3" transform="rotate(0.202891 8.01413 5.01414)" stroke="#8E8E8E" stroke-width="2"/>
<circle cx="16.0142" cy="14.0142" r="3" transform="rotate(-179.797 16.0142 14.0142)" stroke="#8E8E8E" stroke-width="2"/>
</svg>
