<svg width="21" height="20" viewBox="0 0 21 20" fill="none" xmlns="http://www.w3.org/2000/svg">
<path d="M6.58243 14.3051L6.58093 14.3039L5.81864 13.6821C5.81828 13.6818 5.81792 13.6815 5.81756 13.6812C5.30269 13.2668 4.81423 13.1966 4.30912 13.3182C3.76782 13.4485 3.18523 13.8062 2.55204 14.3109C2.55189 14.311 2.55174 14.3112 2.5516 14.3113L1.77307 14.9356L1.77225 14.9362C1.12496 15.453 0.703115 15.9022 0.555317 16.2858C0.489065 16.4577 0.485052 16.5989 0.528368 16.7318C0.574364 16.8729 0.691177 17.0571 0.960169 17.275L0.960749 17.2755L1.65331 17.8383L1.66962 17.8515L1.68477 17.8661C2.11827 18.2834 3.54995 19.4756 5.93725 19.4996H5.93728C8.82296 19.5288 12.3576 17.7222 15.6341 14.2047L15.6344 14.2044C18.9008 10.7037 19.8504 7.72404 19.4231 5.09019L19.4231 5.08996C19.0723 2.92079 17.6261 1.77823 17.1109 1.42843L17.0929 1.4162L17.0761 1.40246L16.3874 0.84161C16.3872 0.841437 16.3869 0.841264 16.3867 0.841092C16.1191 0.624823 15.8983 0.534693 15.7199 0.508693C15.5456 0.483293 15.3727 0.51325 15.1863 0.604525C14.7853 0.80078 14.3654 1.25722 13.9091 1.91824C13.9088 1.91859 13.9086 1.91894 13.9083 1.91929L13.3553 2.72897L13.3549 2.72968C12.9047 3.38637 12.6143 3.96343 12.5538 4.46023C12.4997 4.90456 12.6229 5.32165 13.132 5.73495L13.1321 5.73501L13.8994 6.3582C13.9337 6.38559 13.9735 6.4119 14.0365 6.45357C14.061 6.46974 14.0889 6.48823 14.1214 6.50999C14.2241 6.57874 14.3537 6.66913 14.4788 6.7847C14.7412 7.02697 14.9838 7.38123 15.01 7.9022C15.0349 8.39719 14.8602 8.9757 14.4556 9.67596C14.0485 10.3807 13.3841 11.2503 12.3655 12.3412C11.347 13.4331 10.5307 14.1505 9.8629 14.5975C9.19907 15.0418 8.64034 15.247 8.14792 15.2448C7.63132 15.2424 7.27257 15.0129 7.023 14.7792C6.9107 14.674 6.8153 14.5629 6.74421 14.4801C6.74032 14.4756 6.7365 14.4712 6.73276 14.4668C6.64958 14.3701 6.61041 14.3277 6.58243 14.3051Z" fill="white" stroke="black"/>
</svg>
