<svg display="none" xmlns="http://www.w3.org/2000/svg">
	<symbol id="location" viewBox="0 0 24 24">
		<path d="M12 20.9L16.95 15.95C17.9289 14.971 18.5955 13.7237 18.8656 12.3659C19.1356 11.008 18.9969 9.6006 18.4671 8.32155C17.9373 7.04251 17.04 5.9493 15.8889 5.18017C14.7378 4.41103 13.3844 4.0005 12 4.0005C10.6156 4.0005 9.26222 4.41103 8.11109 5.18017C6.95996 5.9493 6.06275 7.04251 5.53292 8.32155C5.00308 9.6006 4.86442 11.008 5.13445 12.3659C5.40449 13.7237 6.07111 14.971 7.05 15.95L12 20.9ZM12 23.728L5.636 17.364C4.37734 16.1053 3.52019 14.5017 3.17293 12.7558C2.82567 11.01 3.00391 9.20043 3.6851 7.5559C4.36629 5.91137 5.51984 4.50577 6.99988 3.51684C8.47992 2.52791 10.22 2.00008 12 2.00008C13.78 2.00008 15.5201 2.52791 17.0001 3.51684C18.4802 4.50577 19.6337 5.91137 20.3149 7.5559C20.9961 9.20043 21.1743 11.01 20.8271 12.7558C20.4798 14.5017 19.6227 16.1053 18.364 17.364L12 23.728ZM12 13C12.5304 13 13.0391 12.7893 13.4142 12.4142C13.7893 12.0391 14 11.5304 14 11C14 10.4696 13.7893 9.96086 13.4142 9.58578C13.0391 9.21071 12.5304 9 12 9C11.4696 9 10.9609 9.21071 10.5858 9.58578C10.2107 9.96086 10 10.4696 10 11C10 11.5304 10.2107 12.0391 10.5858 12.4142C10.9609 12.7893 11.4696 13 12 13ZM12 15C10.9391 15 9.92172 14.5786 9.17158 13.8284C8.42143 13.0783 8 12.0609 8 11C8 9.93913 8.42143 8.92172 9.17158 8.17157C9.92172 7.42143 10.9391 7 12 7C13.0609 7 14.0783 7.42143 14.8284 8.17157C15.5786 8.92172 16 9.93913 16 11C16 12.0609 15.5786 13.0783 14.8284 13.8284C14.0783 14.5786 13.0609 15 12 15Z"/>
	</symbol>
    <symbol id="logo" viewBox="0 0 360.855 360.855">
		<g>
			<path
			d="M180.428,197.204c24.125,0,80.846-29.034,80.846-98.603c0-9.704-0.236-19.078-1.036-27.935
				c-1.313-17.431-4.883-32.879-13.772-44.718C235.064,9.837,215.116,0,180.428,0c-34.682,0-54.629,9.833-66.031,25.939
				c-8.895,11.842-12.467,27.294-13.779,44.731c-0.799,8.856-1.035,18.229-1.035,27.932
				C99.582,168.17,156.303,197.204,180.428,197.204z M206.817,36.123c-2.354,5.951-3.534,8.927-5.89,14.877
				c-15.209-4.297-25.791-4.297-41,0c-2.355-5.95-3.535-8.926-5.891-14.877C173.057,30.365,187.799,30.366,206.817,36.123z
				M111.609,83.517c0.932,2.037,4.889,9.87,11.014,10.604c7.041,0.845,18.728-24.935,57.805-24.998
				c39.076,0.063,50.764,25.843,57.805,24.998c6.125-0.735,10.082-8.567,11.014-10.604c0.189,4.992,0.259,10.046,0.259,15.085
				c0,34.005-15.015,55.075-27.612,66.762c-15.871,14.727-33.493,20.072-41.465,20.072s-25.594-5.345-41.465-20.072
				c-12.598-11.687-27.612-32.757-27.612-66.762C111.351,93.563,111.42,88.509,111.609,83.517z"
			/>
			<path
			d="M330.52,298.327c-4.128-25.664-12.624-58.724-29.668-70.472c-11.64-8.026-52.248-29.721-69.589-38.985l-0.293-0.156
				c-1.982-1.059-4.403-0.846-6.169,0.541c-9.084,7.131-19.034,11.937-29.574,14.284c-1.862,0.415-3.391,1.738-4.066,3.521
				l-10.733,28.291l-10.734-28.291c-0.675-1.783-2.203-3.106-4.066-3.521c-10.539-2.347-20.489-7.153-29.572-14.284
				c-1.77-1.388-4.189-1.6-6.171-0.541c-17.134,9.156-58.239,31.294-69.829,39.107c-19.621,13.217-28.199,61.052-29.72,70.507
				c-0.15,0.938-0.063,1.897,0.253,2.793c0.416,1.174,6.905,17.982,39.357,31.496c1.871-2.358,4.363-4.146,7.166-5.152
				c-3.482-1.236-6.504-3.659-8.437-6.911c-2.88-4.846-2.987-10.927-0.286-15.858c8.32-15.23,24.254-24.706,41.604-24.729
				c16.138,0,30.767,8.019,39.454,21.053h61.926c1.7-2.539,3.65-4.914,5.838-7.109c8.95-8.976,20.857-13.928,33.529-13.946h0.01h0.01
				c17.336,0,33.29,9.424,41.639,24.602c2.706,4.926,2.615,10.995-0.248,15.857c-1.922,3.253-4.936,5.684-8.414,6.931
				c2.852,1.01,5.383,2.825,7.268,5.224c32.369-13.507,38.848-30.284,39.264-31.456C330.584,300.224,330.671,299.264,330.52,298.327z"
			/>
			<path
			d="M278.414,340.434h-0.004l-29.836,0.041c-0.529-1.256-1.545-4.744-1.555-13.065c-0.014-8.322,0.99-11.816,1.518-13.075
				l29.828-0.044c0.713-0.004,1.371-0.379,1.732-0.992c0.363-0.615,0.373-1.371,0.031-1.995
				c-5.885-10.698-17.115-17.342-29.369-17.342c-8.934,0.013-17.326,3.505-23.633,9.831c-3.25,3.258-5.73,7.074-7.383,11.225h-78.668
				c-4.939-12.315-16.992-21.053-31.082-21.053c-12.217,0.017-23.451,6.699-29.318,17.441c-0.342,0.624-0.328,1.383,0.035,1.994
				c0.363,0.611,1.021,0.984,1.732,0.984h0.002l29.836-0.047c0.531,1.256,1.545,4.744,1.555,13.068
				c0.014,8.323-0.99,11.815-1.518,13.072l-29.828,0.045c-0.711,0.001-1.369,0.379-1.732,0.99c-0.361,0.613-0.373,1.372-0.029,1.996
				c5.883,10.697,17.117,17.346,29.318,17.346h0.049c8.936-0.014,17.326-3.506,23.635-9.833c3.25-3.26,5.729-7.077,7.381-11.228
				h78.666c4.94,12.319,16.984,21.056,31.039,21.058c0,0,0.045,0,0.047,0c12.215-0.017,23.451-6.703,29.318-17.438
				c0.342-0.625,0.328-1.385-0.035-1.995C279.783,340.807,279.125,340.434,278.414,340.434z"
			/>
		</g>
	</symbol>
    <symbol id="rating" viewBox="0 0 21 19">
        <path d="M9.54894 0.927049C9.8483 0.0057385 11.1517 0.0057404 11.4511 0.927051L13.0819 5.9463C13.2158 6.35833 13.5997 6.63729 14.033 6.63729H19.3105C20.2792 6.63729 20.682 7.8769 19.8983 8.4463L15.6287 11.5484C15.2782 11.803 15.1315 12.2544 15.2654 12.6664L16.8963 17.6857C17.1956 18.607 16.1411 19.3731 15.3574 18.8037L11.0878 15.7016C10.7373 15.447 10.2627 15.447 9.91221 15.7016L5.64258 18.8037C4.85887 19.3731 3.80439 18.607 4.10374 17.6857L5.7346 12.6664C5.86847 12.2544 5.72181 11.803 5.37132 11.5484L1.10169 8.4463C0.317977 7.8769 0.720754 6.63729 1.68948 6.63729H6.96703C7.40026 6.63729 7.78421 6.35833 7.91809 5.9463L9.54894 0.927049Z"/>
    </symbol>
    <symbol id="favourites" viewBox="0 0 44 39">
        <path
          d="M5.09726 5.01265C9.22694 0.995783 15.9225 0.995783 20.0522 5.01265L22 6.90728L23.9478 5.01265C28.0775 0.995783 34.7731 0.995783 38.9027 5.01265C43.0324 9.02952 43.0324 15.5421 38.9027 19.559L22 36L5.09726 19.559C0.96758 15.5421 0.96758 9.02952 5.09726 5.01265Z"
        />
    </symbol>
	<symbol id="search" viewBox="0 0 17 17">
		<g>
			<path d="M10.5513 10.6898C10.6445 10.5972 10.755 10.5238 10.8766 10.4739C10.9982 10.424 11.1284 10.3986 11.2598 10.399C11.3912 10.3995 11.5212 10.4259 11.6425 10.4766C11.7637 10.5274 11.8737 10.6015 11.9662 10.6948L15.8026 14.5584C15.9896 14.7466 16.0941 15.0014 16.0933 15.2666C16.0924 15.5319 15.9863 15.786 15.7981 15.9729C15.6099 16.1599 15.3552 16.2645 15.0899 16.2636C14.8246 16.2628 14.5706 16.1566 14.3836 15.9684L10.5472 12.1048C10.4546 12.0116 10.3812 11.9011 10.3313 11.7795C10.2814 11.6579 10.256 11.5277 10.2565 11.3963C10.2569 11.2649 10.2833 11.1348 10.334 11.0136C10.3848 10.8924 10.458 10.7824 10.5513 10.6898Z"/>
			<path d="M6.60371 12.2339C7.32597 12.2364 8.04167 12.0967 8.70994 11.8227C9.3782 11.5486 9.98595 11.1457 10.4985 10.6367C11.011 10.1278 11.4183 9.52296 11.697 8.85665C11.9758 8.19035 12.1206 7.47566 12.1231 6.75339C12.1257 6.03112 11.986 5.31543 11.7119 4.64716C11.4379 3.9789 11.0349 3.37115 10.526 2.85862C10.0171 2.3461 9.41223 1.93882 8.74592 1.66006C8.07961 1.3813 7.36492 1.23651 6.64266 1.23395C5.18398 1.22878 3.78299 1.80329 2.74789 2.83108C1.7128 3.85887 1.12838 5.25576 1.12322 6.71444C1.11805 8.17312 1.69256 9.57411 2.72035 10.6092C3.74814 11.6443 5.14502 12.2287 6.60371 12.2339ZM13.1231 6.75693C13.117 8.48083 12.4264 10.1317 11.2031 11.3464C9.97978 12.561 8.32406 13.24 6.60017 13.2339C4.87627 13.2278 3.2254 12.5371 2.01074 11.3138C0.796079 10.0905 0.117118 8.43479 0.123223 6.7109C0.129328 4.987 0.819997 3.33614 2.04329 2.12147C3.26659 0.906811 4.9223 0.22785 6.6462 0.233955C8.3701 0.240059 10.021 0.930729 11.2356 2.15402C12.4503 3.37732 13.1292 5.03303 13.1231 6.75693Z"/>
		</g>
	</symbol>
    <symbol id="cart-icon" viewBox="0 0 24 25">
		<g>
			<path d="M9 22.5C9.55228 22.5 10 22.0523 10 21.5C10 20.9477 9.55228 20.5 9 20.5C8.44772 20.5 8 20.9477 8 21.5C8 22.0523 8.44772 22.5 9 22.5Z"/>
			<path d="M20 22.5C20.5523 22.5 21 22.0523 21 21.5C21 20.9477 20.5523 20.5 20 20.5C19.4477 20.5 19 20.9477 19 21.5C19 22.0523 19.4477 22.5 20 22.5Z"/>
			<path d="M1 1.5H5L7.68 14.89C7.77144 15.3504 8.02191 15.764 8.38755 16.0583C8.75318 16.3526 9.2107 16.509 9.68 16.5H19.4C19.8693 16.509 20.3268 16.3526 20.6925 16.0583C21.0581 15.764 21.3086 15.3504 21.4 14.89L23 6.5H6"/>
		</g>
	</symbol>
	<symbol id="error-render-sprite" viewBox="0 0 280 280">
		<g>
			<path d="M88.3723 71.0584C88.3723 71.0584 120.214 95.2209 168.62 50.0411C211.61 9.91705 246.712 73.2235 246.958 103.54C247.276 142.812 203.968 174.235 224.985 200.029C246.003 225.823 183.305 268.418 149.514 231.555C107.479 185.699 96.091 222.957 72.1312 222.957C54.9352 222.957 19.6297 180.229 43.4711 148.441C63.5331 121.691 52.5917 112.814 47.2931 103.54C39.6501 90.1652 57.8015 53.8624 88.3723 71.0584Z" fill="#DEE9FF"/>
			<path d="M230.367 54.5875C230.367 55.182 230.341 55.7676 230.289 56.3476C229.827 61.5877 227.331 66.4385 223.336 69.8609C219.341 73.2833 214.165 75.0052 208.916 74.6578C203.667 74.3104 198.762 71.9212 195.253 68.0022C191.744 64.0831 189.91 58.9457 190.142 53.6903C190.374 48.435 192.656 43.4796 196.497 39.8856C200.338 36.2916 205.434 34.3447 210.693 34.462C215.953 34.5793 220.957 36.7515 224.634 40.5132C228.311 44.2749 230.369 49.3271 230.367 54.5875Z" fill="#A2BDFF"/>
			<path d="M212.784 56.1282C211.486 57.138 209.671 59.1491 210.219 63.6241C209.611 65.361 207.447 68.679 207.447 70.2658C207.447 71.8526 204.85 72.1418 204.561 71.7078C204.273 71.2738 204.129 65.7931 202.542 64.7833C200.955 63.7734 201.243 59.1571 201.243 59.1571C201.243 59.1571 201.82 57.4258 199.945 56.2718C198.069 55.1178 196.763 52.3767 198.427 50.7898C200.089 49.2029 195.617 48.1931 195.04 47.0391C194.795 46.5491 193.854 45.4522 192.856 44.3587C195.014 40.7032 198.269 37.8201 202.158 36.1184C203.632 37.6584 204.908 39.6297 204.561 41.7013C204.619 42.7111 209.002 44.298 206.855 46.4613C204.706 48.6253 201.789 51.6553 206.855 52.6646C211.919 53.6759 214.083 55.1179 212.784 56.1282Z" fill="#0E84E5"/>
			<path d="M224.308 40.1874C223.229 42.4638 220.523 44.2987 218.988 44.2987C217.257 42.4227 213.506 45.0202 213.154 41.9906C212.949 40.2249 214.963 37.4838 216.68 35.4989C219.542 36.47 222.149 38.0723 224.308 40.1874Z" fill="#0E84E5"/>
			<path d="M230.289 56.3476C229.86 61.3289 227.586 65.9704 223.913 69.3628C223.246 68.7251 222.684 67.9779 222.883 67.3807C223.315 66.0823 225.076 63.3413 224.773 61.6102C224.49 59.9944 225.982 55.1069 230.289 56.3476Z" fill="#0E84E5"/>
			<path d="M221.62 223.098L179.015 181.063L170.579 189.588L213.185 231.623L221.62 223.098Z" fill="#699CFF"/>
			<path d="M237.896 234.392L204.749 201.689C204.564 201.507 204.267 201.509 204.084 201.693L191.539 214.371C191.356 214.555 191.358 214.852 191.542 215.034L224.69 247.737C224.874 247.919 225.172 247.918 225.354 247.734L237.9 235.056C238.083 234.871 238.081 234.574 237.896 234.392Z" fill="#ff8d00"/>
			<path d="M197.529 156.356C196.885 160.33 195.818 164.225 194.348 167.973C184.765 192.519 159.059 207.896 132.007 203.477C117.072 201.032 103.718 192.757 94.8825 180.47C86.0465 168.183 82.4508 152.891 84.8857 137.954C85.0095 137.196 85.1538 136.432 85.3045 135.689C91.4078 105.828 120.059 85.8754 150.408 90.8326C159.464 92.2967 168.03 95.9351 175.371 101.436C177.783 103.237 180.047 105.23 182.139 107.394C188.352 113.785 192.98 121.543 195.653 130.046C198.326 138.548 198.968 147.559 197.529 156.355V156.356Z" fill="#699CFF"/>
			<path d="M194.348 167.973C183.48 174.969 170.646 181.441 156.497 186.792C142.09 192.238 127.942 195.918 114.975 197.845C84.5034 202.388 60.5728 197.312 55.1808 183.049C50.1313 169.728 62.6996 150.988 85.4531 134.992C85.0309 137 84.6205 139.673 84.6205 139.673C84.6205 139.673 84.3865 141.252 84.2305 143.996C71.1209 154.118 64.2157 166.378 66.9051 173.489C69.5199 180.403 80.6217 183.345 96.4151 182.511C111.855 181.698 131.779 177.25 152.634 169.366C170.67 162.539 186.487 154.241 198.264 145.905C214.031 134.758 222.582 123.542 219.631 115.718C216.596 107.685 200.027 103.005 180.05 105.393C177.398 102.973 177.414 103.006 175.001 101.205C202.964 97.9729 224.887 103.486 229.967 116.92C235.409 131.288 220.567 151.124 194.348 167.973Z" fill="#ff8d00"/>
		</g>
	</symbol>
</svg>