<svg xmlns="http://www.w3.org/2000/svg">
	<svg id="header-phone-svg" viewBox="0 0 32 43" fill="none">
		<circle cx="22" cy="8" r="8" fill="#246ff8"/>
		<path d="M16 35C16 39.4183 12.4183 43 8 43C3.58172 43 0 39.4183 0 35C0 30.5817 3.58172 27 8 27C12.4183 27 16 30.5817 16 35Z" fill="#246ff8"/>
		<path d="M26.8004 7C26.8004 7 30.8325 13 24.1123 25.6667C17.3922 38.3333 10 39 10 39" stroke="#246ff8" stroke-width="7" stroke-linecap="round"/>
	</svg>
    <symbol id="full-star" viewBox="0 0 21 19">
        <path d="M9.54894 0.927049C9.8483 0.0057385 11.1517 0.0057404 11.4511 0.927051L13.0819 5.9463C13.2158 6.35833 13.5997 6.63729 14.033 6.63729H19.3105C20.2792 6.63729 20.682 7.8769 19.8983 8.4463L15.6287 11.5484C15.2782 11.803 15.1315 12.2544 15.2654 12.6664L16.8963 17.6857C17.1956 18.607 16.1411 19.3731 15.3574 18.8037L11.0878 15.7016C10.7373 15.447 10.2627 15.447 9.91221 15.7016L5.64258 18.8037C4.85887 19.3731 3.80439 18.607 4.10374 17.6857L5.7346 12.6664C5.86847 12.2544 5.72181 11.803 5.37132 11.5484L1.10169 8.4463C0.317977 7.8769 0.720754 6.63729 1.68948 6.63729H6.96703C7.40026 6.63729 7.78421 6.35833 7.91809 5.9463L9.54894 0.927049Z"/>
    </symbol>
	<symbol id="half-star" viewBox="0 0 9 9">
		<g>
			<path d="M4.5 0.5L6.02963 3.10796L9 3.74671L6.975 5.99727L7.28115 9L4.5 7.78296L1.71885 9L2.025 5.99727L0 3.74671L2.97037 3.10796L4.5 0.5Z" fill="#F2F2F2"/>
			<path d="M1.71885 9L4.5 7.78296V0.5L2.97037 3.10796L0 3.74671L2.025 5.99727L1.71885 9Z" fill="#FFCB45"/>
		</g>
	</symbol>
	<symbol id="empty-star" viewBox="0 0 9 9">
		<path d="M4.5 0L6.02963 2.60796L9 3.24671L6.975 5.49727L7.28115 8.5L4.5 7.28296L1.71885 8.5L2.025 5.49727L0 3.24671L2.97037 2.60796L4.5 0Z" fill="#F2F2F2"/>
	</symbol>
</svg>